<?xml version="1.0" encoding="UTF-8"?>
<svg width="94px" height="150px" viewBox="0 0 94 150" version="1.1" xmlns="http://www.w3.org/2000/svg" xmlns:xlink="http://www.w3.org/1999/xlink">
    <!-- Generator: Sketch 51.3 (57544) - http://www.bohemiancoding.com/sketch -->
    <title>bolt-filled</title>
    <desc>Created with Sketch.</desc>
    <defs></defs>
    <g id="Artwork" stroke="none" stroke-width="1" fill="none" fill-rule="evenodd">
        <g id="icon-serverles-framework" transform="translate(-53.000000, -24.000000)" stroke="#FD5750" stroke-width="5">
            <g id="bolt-filled" transform="translate(57.000000, 28.000000)">
                <path d="M67.9450726,50.4617747 L84.8345857,22.1720099 L85.0686982,0.229437503 C84.9154027,0.0964144957 84.9574412,0.133023007 84.8041457,0 C58.1619015,22.6903904 26.6693059,49.8818028 0.0270617746,72.5718307 C0.0664426423,72.6580963 0.0574220507,77.022483 0,85.6649907 L31.4910086,80.5205829 C20.6164532,98.344216 9.21990955,117.823885 9.21990955,117.823885 L9.28960288,140 L87.1111111,69.9044567 L86.8720037,48.3409958 C86.8720037,48.3409958 72.8385682,49.8894495 67.9450726,50.4617747 Z" id="Stroke-1"></path>
                <path d="M52.2300277,53.378163 C62.916501,52.1286344 84.7777778,49.4006475 84.7777778,49.5727968 C84.7777778,49.7431377 34.7239328,94.9131464 9.85020126,117.444444 C9.71310708,117.331245 9.75217349,117.363433 9.61544104,117.249872 C20.4697552,99.4660599 31.3237077,81.6822473 42.1780219,63.8984348 C42.0745682,63.7425602 42.0604609,63.7219457 41.9570073,63.566071 C29.5266526,65.4560961 17.0966596,67.3457596 4.66666667,69.2357847 C31.1468237,46.3489767 83.5645748,2.33333333 83.5645748,2.33333333 C83.6177485,2.47040174 62.2313918,36.6851113 51.956201,52.9430884 C52.0838903,53.1456169 52.1023384,53.1752729 52.2300277,53.378163 Z" id="Stroke-3" fill="#FD5750"></path>
            </g>
        </g>
    </g>
</svg>